<svg width="694" height="101" viewBox="0 0 694 101" fill="none" xmlns="http://www.w3.org/2000/svg">
    <path d="M69.8125 48.25C69.6458 49.375 69.3125 52.0208 68.8125 56.1875C68.3542 60.3542 67.8333 64.7292 67.25 69.3125C66.6667 73.8958 66.0208 78.5 65.3125 83.125C64.6042 87.7083 63.7917 91.5 62.875 94.5C61.9583 97.5 61.0417 99 60.125 99C58.3333 99 55.6875 98.9583 52.1875 98.875C48.6875 98.7917 46.0417 98.75 44.25 98.75C36.2083 98.75 28.7917 98.9167 22 99.25C21.4167 98.9583 20.8958 98.5 20.4375 97.875C20.0208 97.25 19.6667 96.5 19.375 95.625C19.125 94.75 18.9167 93.9792 18.75 93.3125C18.625 92.6042 18.4792 91.7292 18.3125 90.6875C18.1875 89.6042 18.0833 88.875 18 88.5C10.7917 54.125 6.33333 33.2083 4.625 25.75L0.25 4.75C0.25 3.58333 0.833333 2.79167 2 2.375C3 2.45833 4.58333 2.5 6.75 2.5H11.75C12.75 2.5 14.1875 2.45833 16.0625 2.375C17.9375 2.29167 19.2917 2.25 20.125 2.25C20.9167 2.20833 22.0833 2.22917 23.625 2.3125C25.1667 2.35417 26.1667 2.375 26.625 2.375H30.25C30.6667 2.45833 31.2917 2.5 32.125 2.5H34C34.75 2.70833 35.5 4.14583 36.25 6.8125C37 9.47917 37.7083 13.1458 38.375 17.8125C39.0417 22.4792 39.5833 26.5625 40 30.0625C40.4167 33.5208 40.875 37.7292 41.375 42.6875C41.9167 47.6042 42.1875 50.1042 42.1875 50.1875L50.125 2.625C52.125 2.79167 53.7083 2.875 54.875 2.875H58.75C62.125 2.875 67 2.85417 73.375 2.8125C79.7917 2.77083 84.5833 2.75 87.75 2.75C88.625 2.75 89.1667 3.08333 89.375 3.75L97.1875 55.4375C97.9792 45.9375 98.9583 37.25 100.125 29.375L103.875 4C104.167 3 105.625 2.5 108.25 2.5H111.25C111.75 2.45833 112.521 2.47917 113.562 2.5625C114.646 2.60417 115.417 2.625 115.875 2.625H121.375C122.917 2.625 124.646 2.64583 126.562 2.6875C128.521 2.72917 129.542 2.75 129.625 2.75H137C137.375 2.75 137.625 3.04167 137.75 3.625C137.875 4.16667 137.979 5.08333 138.062 6.375L117.938 98.375C117.104 98.4583 116.104 98.5 114.938 98.5C113.771 98.5 112.708 98.4792 111.75 98.4375C110.792 98.4375 109.688 98.4167 108.438 98.375C107.188 98.375 106.167 98.375 105.375 98.375C103.667 98.375 101.062 98.3542 97.5625 98.3125C94.1042 98.2708 91.5 98.25 89.75 98.25C89.5417 98.25 85.4792 98.375 77.5625 98.625L69.8125 48.25ZM128.375 97C130.958 87.4583 133.812 77.7708 136.938 67.9375C140.062 58.1042 143.938 46.3542 148.562 32.6875C153.229 18.9792 156.417 9.5 158.125 4.25C158.625 3.41667 158.958 2.91667 159.125 2.75H169.625C172.083 2.75 175.708 2.70833 180.5 2.625C185.292 2.54167 188.917 2.5 191.375 2.5H201.875C202.5 2.5 203.021 2.52083 203.438 2.5625C203.854 2.5625 204.354 2.60417 204.938 2.6875C205.521 2.77083 205.979 2.89583 206.312 3.0625C206.688 3.22917 207 3.47917 207.25 3.8125C207.5 4.14583 207.625 4.54167 207.625 5L236.438 96.3125C236.438 97.1458 236.125 97.7083 235.5 98C234.917 98.3333 233.792 98.5 232.125 98.5H226.375C224.708 98.5 222.229 98.5208 218.938 98.5625C215.646 98.6042 213.167 98.625 211.5 98.625C211 98.625 209.979 98.6458 208.438 98.6875C206.938 98.7708 205.667 98.7917 204.625 98.75C203.583 98.75 202.417 98.6875 201.125 98.5625C199.875 98.4792 198.854 98.25 198.062 97.875C197.312 97.5417 196.833 97.0833 196.625 96.5V92.375C196.208 90.2917 195.479 88.375 194.438 86.625C193.396 84.875 192.292 84 191.125 84H169.625L166.375 97.25C165.917 98.25 163.583 98.75 159.375 98.75H154.375C152.583 98.75 149.917 98.8125 146.375 98.9375C142.833 99.0625 140.167 99.125 138.375 99.125H136.625C135.958 99.125 134.896 99.1458 133.438 99.1875C132.021 99.2292 130.917 99.25 130.125 99.25C129.792 98.9167 129.208 98.1667 128.375 97ZM171.75 59.0625L173.5 62H177.625C180.958 62 184 61.8125 186.75 61.4375C189.542 61.0208 190.938 60.375 190.938 59.5L182.875 23.5C182.125 23.5 181.104 24.9167 179.812 27.75C178.562 30.5833 177.542 33.7917 176.75 37.375L171.75 59.0625ZM225.75 22.125C225.75 21.375 225.792 20.2708 225.875 18.8125C225.958 17.3125 226 16.2917 226 15.75C226 15.5417 225.958 14.7917 225.875 13.5C225.792 12.2083 225.75 11.0833 225.75 10.125C225.75 5.70833 226.167 3.5 227 3.5C227.333 3.5 227.625 3.54167 227.875 3.625C236.583 3.625 249.479 3.52083 266.562 3.3125C283.688 3.10417 296.5 3 305 3C307.125 3 308.458 3.1875 309 3.5625C309.583 3.9375 309.875 4.66667 309.875 5.75V7.5C309.875 9.66667 309.896 12.875 309.938 17.125C309.979 21.3333 310 24.5417 310 26.75C310 28.9167 309.417 30 308.25 30C305.917 30 302.438 29.9583 297.812 29.875C293.188 29.7917 289.708 29.75 287.375 29.75V96.75C287.083 98 286.375 98.6667 285.25 98.75C283.792 98.75 281.667 98.7292 278.875 98.6875C276.083 98.6458 273.958 98.625 272.5 98.625C272.417 98.625 272.333 98.6667 272.25 98.75C270.417 98.75 267.833 98.7292 264.5 98.6875C261.208 98.6458 258.75 98.625 257.125 98.625H253.375C252.542 98.7083 251.333 98.75 249.75 98.75L247.25 95.75C247.25 89.4167 247.458 80 247.875 67.5C248.292 55 248.5 45.5833 248.5 39.25C248.5 38.9583 248.479 38.4792 248.438 37.8125C248.438 37.1458 248.438 36.6042 248.438 36.1875C248.438 35.7708 248.396 35.25 248.312 34.625C248.271 34 248.167 33.5 248 33.125C247.875 32.7083 247.708 32.3125 247.5 31.9375C247.292 31.5208 247 31.2292 246.625 31.0625C246.292 30.8542 245.875 30.75 245.375 30.75H227.5C226.333 30.4167 225.75 27.5417 225.75 22.125ZM404.625 63.5C403.917 69.75 402.271 75.2917 399.688 80.125C397.104 84.9167 393.792 88.8333 389.75 91.875C385.708 94.875 381.104 97.1458 375.938 98.6875C370.812 100.229 365.208 101 359.125 101C353.458 101 348.292 100.375 343.625 99.125C338.958 97.9167 335.021 96.2917 331.812 94.25C328.604 92.2083 325.771 89.7292 323.312 86.8125C320.854 83.8542 318.896 80.8333 317.438 77.75C315.979 74.625 314.792 71.2292 313.875 67.5625C313 63.8542 312.396 60.4167 312.062 57.25C311.771 54.0417 311.625 50.7083 311.625 47.25V41.75C312.042 35.6667 313.458 30.2083 315.875 25.375C318.292 20.5 321.229 16.5833 324.688 13.625C328.146 10.625 332.104 8.14583 336.562 6.1875C341.021 4.1875 345.354 2.8125 349.562 2.0625C353.771 1.27083 357.958 0.875 362.125 0.875C368.833 0.875 374.75 1.6875 379.875 3.3125C385.042 4.89583 389.25 7.14583 392.5 10.0625C395.75 12.9792 398.292 16.3333 400.125 20.125C401.958 23.875 403.125 28.0833 403.625 32.75V38.75C403.625 40.0833 399.042 40.75 389.875 40.75C387.708 40.75 384.688 40.7083 380.812 40.625C376.979 40.5417 374.458 40.5 373.25 40.5C373.042 40.5 372.729 40.5208 372.312 40.5625C371.896 40.6042 371.583 40.625 371.375 40.625C370.292 40.625 369.458 40.1875 368.875 39.3125C368.333 38.3958 367.958 37.2917 367.75 36C367.583 34.7083 367.354 33.4167 367.062 32.125C366.812 30.8333 366.25 29.75 365.375 28.875C364.542 27.9583 363.375 27.5 361.875 27.5C360.375 27.5 359.062 27.75 357.938 28.25C356.812 28.75 355.917 29.5417 355.25 30.625C354.583 31.6667 354.021 32.7292 353.562 33.8125C353.146 34.8958 352.833 36.3125 352.625 38.0625C352.458 39.7708 352.333 41.2292 352.25 42.4375C352.208 43.6042 352.167 45.1875 352.125 47.1875C352.083 49.1458 352.042 50.5833 352 51.5C352 52 351.958 52.9167 351.875 54.25C351.792 55.5833 351.75 56.6667 351.75 57.5C351.75 67.875 354.5 73.2083 360 73.5C361.5 73.5 362.729 72.9583 363.688 71.875C364.646 70.7917 365.292 69.5833 365.625 68.25C366 66.9167 366.417 65.5208 366.875 64.0625C367.333 62.5625 367.833 61.5417 368.375 61H402.375C403.75 61.125 404.5 61.9583 404.625 63.5ZM428.875 98.625C427.708 98.625 426.354 98.6458 424.812 98.6875C423.271 98.7708 422.083 98.8333 421.25 98.875C420.417 98.9167 419.458 98.8958 418.375 98.8125C417.333 98.7708 416.542 98.625 416 98.375C415.458 98.1667 414.875 97.8333 414.25 97.375C413.667 96.9167 413.229 96.2917 412.938 95.5C412.688 94.7083 412.458 93.7292 412.25 92.5625C412.083 91.3958 412 90 412 88.375C412 79.375 412.167 67.1042 412.5 51.5625C412.833 35.9792 413 24.5417 413 17.25C413 8.25 413.458 3.5 414.375 3H437.625C441.75 3 444.812 3.25 446.812 3.75C448.854 4.20833 450.208 4.91667 450.875 5.875C451.542 6.83333 451.875 8.29167 451.875 10.25C451.875 10.8333 451.833 11.9792 451.75 13.6875C451.667 15.3542 451.625 16.75 451.625 17.875V20.75C451.625 22.0833 451.562 24.0833 451.438 26.75C451.312 29.4167 451.25 31.4167 451.25 32.75V34C451.333 34.25 451.375 34.5833 451.375 35H453.875C454.583 35 455.667 35.0208 457.125 35.0625C458.583 35.1042 459.667 35.125 460.375 35.125C462.292 35.125 463.708 35 464.625 34.75V8.75C464.625 6.66667 464.729 5.1875 464.938 4.3125C465.146 3.39583 465.438 2.83333 465.812 2.625C466.188 2.375 466.875 2.25 467.875 2.25C468.417 2.25 469.292 2.27083 470.5 2.3125C471.708 2.35417 472.583 2.375 473.125 2.375L477.75 2.1875C480.875 2.0625 483.667 2 486.125 2C497.458 2 503.125 3.25 503.125 5.75C503.125 6.41667 503.146 7.375 503.188 8.625C503.229 9.875 503.25 10.8333 503.25 11.5C503.25 12.9583 503.229 15.0833 503.188 17.875C503.146 20.6667 503.125 22.7917 503.125 24.25C503.125 28.5833 503.188 35.0417 503.312 43.625C503.438 52.2083 503.5 58.6667 503.5 63C503.5 63.375 503.479 63.8542 503.438 64.4375C503.396 64.9792 503.375 65.3333 503.375 65.5V68.5C503.375 71.1667 503.417 73.1667 503.5 74.5V75.875C503.417 76.0417 503.375 76.2917 503.375 76.625C503.375 78.8333 503.417 82.1875 503.5 86.6875C503.583 91.1875 503.625 94.5417 503.625 96.75C503.333 98.25 499.333 99 491.625 99H465.625L463.75 96.375V92.25C463.75 89.4583 463.771 85.3333 463.812 79.875C463.854 74.4167 463.875 70.2917 463.875 67.5C463.875 66.5417 463.75 65.8958 463.5 65.5625C463.292 65.1875 462.833 65 462.125 65H459.875C457.042 65 454.458 65.1667 452.125 65.5C452.125 68.9583 452.083 74.1667 452 81.125C451.917 88.0417 451.875 93.25 451.875 96.75C451.375 98 446.167 98.625 436.25 98.625H428.875Z" fill="black"/>
    <path d="M516.75 96.125V94.25C516.75 93.625 516.771 92.6458 516.812 91.3125C516.854 89.9375 516.875 88.8333 516.875 88V84.75C516.875 74.5833 517.542 69.5 518.875 69.5H544.5C548.5 69.5 550.5 70.0833 550.5 71.25C550.667 79.25 550.75 85.375 550.75 89.625V91.75C550.75 92.0417 550.771 92.5 550.812 93.125C550.854 93.7083 550.875 94.1667 550.875 94.5C550.875 96.8333 550.417 98 549.5 98H518.75L516.75 96.125Z" fill="#F68735"/>
    <path d="M563.25 98.625C563.417 86.5 563.708 77.625 564.125 72C564.125 54.5 564.375 36.75 564.875 18.75C564.708 15.25 564.625 12.6667 564.625 11V9.125C564.458 7.29167 564.375 5.79167 564.375 4.625C564.375 3.83333 564.75 3.125 565.5 2.5C572.333 3 582.75 3.25 596.75 3.25C600.083 3.25 602.375 3.16667 603.625 3V98.625H563.25ZM609.75 22.125C609.75 21.375 609.792 20.2708 609.875 18.8125C609.958 17.3125 610 16.2917 610 15.75C610 15.5417 609.958 14.7917 609.875 13.5C609.792 12.2083 609.75 11.0833 609.75 10.125C609.75 5.70833 610.167 3.5 611 3.5C611.333 3.5 611.625 3.54167 611.875 3.625C620.583 3.625 633.479 3.52083 650.562 3.3125C667.688 3.10417 680.5 3 689 3C691.125 3 692.458 3.1875 693 3.5625C693.583 3.9375 693.875 4.66667 693.875 5.75V7.5C693.875 9.66667 693.896 12.875 693.938 17.125C693.979 21.3333 694 24.5417 694 26.75C694 28.9167 693.417 30 692.25 30C689.917 30 686.438 29.9583 681.812 29.875C677.188 29.7917 673.708 29.75 671.375 29.75V96.75C671.083 98 670.375 98.6667 669.25 98.75C667.792 98.75 665.667 98.7292 662.875 98.6875C660.083 98.6458 657.958 98.625 656.5 98.625C656.417 98.625 656.333 98.6667 656.25 98.75C654.417 98.75 651.833 98.7292 648.5 98.6875C645.208 98.6458 642.75 98.625 641.125 98.625H637.375C636.542 98.7083 635.333 98.75 633.75 98.75L631.25 95.75C631.25 89.4167 631.458 80 631.875 67.5C632.292 55 632.5 45.5833 632.5 39.25C632.5 38.9583 632.479 38.4792 632.438 37.8125C632.438 37.1458 632.438 36.6042 632.438 36.1875C632.438 35.7708 632.396 35.25 632.312 34.625C632.271 34 632.167 33.5 632 33.125C631.875 32.7083 631.708 32.3125 631.5 31.9375C631.292 31.5208 631 31.2292 630.625 31.0625C630.292 30.8542 629.875 30.75 629.375 30.75H611.5C610.333 30.4167 609.75 27.5417 609.75 22.125Z" fill="#F78735"/>
</svg>